{"title":"Fury 2014 HDCAM FIRST ENGLISH x264 Pimp4003","uid":11301564,"size":1873206154,"categoryP":"video","categoryS":"movies","magnet":"?xt=urn:btih:3e1cb4c4e0613eec2eb1bb0bac0875d1e5efd579&amp;dn=Fury+2014+HDCAM+FIRST+ENGLISH+x264+Pimp4003&amp;tr=udp%3A%2F%2Ftracker.openbittorrent.com%3A80&amp;tr=udp%3A%2F%2Fopen.demonii.com%3A1337&amp;tr=udp%3A%2F%2Ftracker.coppersurfer.tk%3A6969&amp;tr=udp%3A%2F%2Fexodus.desync.com%3A6969","seeders":35,"leechers":0,"uploader":"shawnmurthy","files":-1,"time":1414428296,"description":" &lt;a href=&quot;http://i.imgur.com/fW5GLTr.jpg&quot; rel=&quot;nofollow&quot; target=&quot;_NEW&quot;&gt;http://i.imgur.com/fW5GLTr.jpg&lt;/a&gt;\n\nTHERE ARE NO STRINGS.....ON ME.......PIMP4003.......PIMPIN 24/7\n &lt;a href=&quot;\nhttp://i.imgur.com/Ou2HHEy.png&quot; rel=&quot;nofollow&quot; target=&quot;_NEW&quot;&gt;\nhttp://i.imgur.com/Ou2HHEy.png&lt;/a&gt;\n &lt;a href=&quot;\nhttp://i.imgur.com/V2EbrEZ.jpg&quot; rel=&quot;nofollow&quot; target=&quot;_NEW&quot;&gt;\nhttp://i.imgur.com/V2EbrEZ.jpg&lt;/a&gt;\n\nLIKE ALWAYS I BRING THE FIRST CAM.....YES IN ENGLISH AND YES SPANISH SUBS......NOT BAD THE DARK SCENES WERE A LITTLE BIT DARK....DID SOME WORK CHANGED CONTRAST BRIGHTENED THE DARK SCENES THE BEST I COULD......VIDEO IS NOT BAD IS IN SYNC DID WHAT I COULD TO MAKE IT BETTER........UNTIL TS OR WEBRIP............ENJOY.....PIMP4003 EEXCLUSIVE\n\nFury 2014 HDCAM FIRST ENGLISH x264 Pimp4003\n\nENJOY\n\nPIMP4003\n\nVideo\nID                                       : 0\nFormat                                   : MPEG-4 Visual\nFormat profile                           : Simple@L1\nFormat settings, BVOP                    : No\nFormat settings, QPel                    : No\nFormat settings, GMC                     : No warppoints\nFormat settings, Matrix                  : Default (H.263)\nCodec ID                                 : XVID\nCodec ID/Hint                            : XviD\nDuration                                 : 2h 6mn\nBit rate                                 : 1 841 Kbps\nWidth                                    : 720 pixels\nHeight                                   : 404 pixels\nDisplay aspect ratio                     : 16:9\nFrame rate                               : 23.976 fps\nColor space                              : YUV\nChroma subsampling                       : 4:2:0\nBit depth                                : 8 bits\nScan type                                : Progressive\nCompression mode                         : Lossy\nBits/(Pixel*Frame)                       : 0.264\nStream size                              : 1.62 GiB (93%)\nWriting library                          : Lavc52.97.0\n\nAudio\nID                                       : 1\nFormat                                   : MPEG Audio\nFormat version                           : Version 1\nFormat profile                           : Layer 3\nMode                                     : Joint stereo\nCodec ID                                 : 55\nCodec ID/Hint                            : MP3\nDuration                                 : 2h 5mn\nBit rate mode                            : Constant\nBit rate                                 : 128 Kbps\nChannel(s)                               : 2 channels\nSampling rate                            : 48.0 KHz\nCompression mode                         : Lossy\nStream size                              : 115 MiB (6%)\nAlignment                                : Aligned on interleaves\nInterleave, duration                     : 24 ms (0.58 video frame)\nInterleave, preload duration             : 24 ms\nWriting library                          : LAME3.98.4\n &lt;a href=&quot;\nhttp://i.imgur.com/1vc16TP.png&quot; rel=&quot;nofollow&quot; target=&quot;_NEW&quot;&gt;\nhttp://i.imgur.com/1vc16TP.png&lt;/a&gt; &lt;a href=&quot;\nhttp://i.imgur.com/4i9xpnW.png&quot; rel=&quot;nofollow&quot; target=&quot;_NEW&quot;&gt;\nhttp://i.imgur.com/4i9xpnW.png&lt;/a&gt; &lt;a href=&quot;\nhttp://i.imgur.com/uoFXlkf.png&quot; rel=&quot;nofollow&quot; target=&quot;_NEW&quot;&gt;\nhttp://i.imgur.com/uoFXlkf.png&lt;/a&gt;","torrent":{"xt":"urn:btih:3e1cb4c4e0613eec2eb1bb0bac0875d1e5efd579","amp;dn":"Fury+2014+HDCAM+FIRST+ENGLISH+x264+Pimp4003","amp;tr":["udp%3A%2F%2Ftracker.openbittorrent.com%3A80","udp%3A%2F%2Fopen.demonii.com%3A1337","udp%3A%2F%2Ftracker.coppersurfer.tk%3A6969","udp%3A%2F%2Fexodus.desync.com%3A6969"],"infoHash":"3e1cb4c4e0613eec2eb1bb0bac0875d1e5efd579","infoHashBuffer":{"type":"Buffer","data":[62,28,180,196,224,97,62,236,46,177,187,11,172,8,117,209,229,239,213,121]},"announce":[],"urlList":[]}}